<svg enable-background="new 0 0 568 305" viewBox="0 0 568 305" xmlns="http://www.w3.org/2000/svg" xmlns:xlink="http://www.w3.org/1999/xlink"><radialGradient id="a" cx="147" cy="240" gradientTransform="matrix(1 0 0 -1 26.5198 300.8029)" gradientUnits="userSpaceOnUse" r="363.0565"><stop offset="0" stop-color="#fff"/><stop offset=".5" stop-color="#4c6b97"/><stop offset="1"/></radialGradient><ellipse cx="284" cy="155.1" fill="url(#a)" rx="276.5" ry="145.4"/><ellipse cx="284" cy="155.1" fill="#6181b6" rx="265.7" ry="134.6"/><path d="m337.8 198.6 13.2-67.8c3-15.3.5-26.7-7.4-33.9-7.6-7-20.5-10.4-39.5-10.4h-22.8l6.5-33.6c.2-1.3-.1-2.6-.9-3.6s-2-1.6-3.3-1.6h-31.5c-2.1 0-3.8 1.5-4.2 3.5l-14 72c-1.3-8.1-4.4-15.1-9.4-20.8-9.2-10.6-23.9-15.9-43.4-15.9h-61.1c-2.1 0-3.8 1.5-4.2 3.5l-28.4 145.7c-.2 1.3.1 2.6.9 3.6s2 1.6 3.3 1.6h31.8c2.1 0 3.8-1.5 4.2-3.5l6.9-35.3h23.6c12.4 0 22.8-1.3 31-4 8.3-2.7 16-7.3 22.7-13.6 5.5-5 10-10.6 13.4-16.7l-5.7 29.1c-.2 1.3.1 2.6.9 3.6s2 1.6 3.3 1.6h31.5c2.1 0 3.8-1.5 4.2-3.5l15.5-80h21.6c9.2 0 11.9 1.8 12.6 2.6.7.7 2.1 3.3.5 11.2l-12.3 64.6c-.2 1.3.1 2.6.9 3.6s2 1.6 3.3 1.6h32c2.1-.1 3.9-1.5 4.3-3.6zm-146-56c-2 10.2-5.7 17.4-11.1 21.6-5.5 4.2-14.2 6.3-26 6.3h-14.1l10.2-52.4h18.2c13.4 0 18.8 2.9 20.9 5.3 3 3.3 3.7 9.9 1.9 19.2z" fill="#fff"/><path d="m472.5 102.4c-9.2-10.6-23.9-15.9-43.4-15.9h-61.1c-2.1 0-3.8 1.5-4.2 3.5l-28.3 145.8c-.2 1.3.1 2.6.9 3.6s2 1.6 3.3 1.6h31.8c2.1 0 3.8-1.5 4.2-3.5l6.9-35.3h23.6c12.4 0 22.8-1.3 31-4 8.3-2.7 16-7.3 22.7-13.6 5.6-5.2 10.3-11 13.8-17.3s6-13.3 7.5-20.8c3.5-18.6.6-33.4-8.7-44.1zm-32.9 40.2c-2 10.2-5.7 17.4-11.1 21.6-5.5 4.2-14.2 6.3-26 6.3h-14.1l10.2-52.4h18.2c13.4 0 18.8 2.9 20.9 5.3 3.1 3.3 3.7 9.9 1.9 19.2z" fill="#fff"/><path d="m169 113.8c12.1 0 20.1 2.2 24.1 6.7s5 12.1 2.9 22.9c-2.2 11.3-6.4 19.3-12.7 24.2-6.3 4.8-15.8 7.2-28.6 7.2h-19.3l11.9-61zm-77.3 122.8h31.8l7.5-38.8h27.2c12 0 21.9-1.3 29.6-3.8 7.8-2.5 14.8-6.7 21.1-12.7 5.3-4.9 9.6-10.3 12.9-16.2s5.6-12.4 7-19.5c3.4-17.3.8-30.7-7.6-40.4-8.4-9.6-21.8-14.5-40.2-14.5h-61z"/><path d="m252.2 52.1h31.5l-7.5 38.8h28.1c17.7 0 29.8 3.1 36.5 9.2 6.7 6.2 8.7 16.1 6 29.9l-13.2 67.8h-32l12.5-64.5c1.4-7.3.9-12.3-1.6-15s-7.7-4-15.8-4h-25.2l-16.2 83.5h-31.5z"/><path d="m416.8 113.8c12.1 0 20.1 2.2 24.1 6.7s5 12.1 2.9 22.9c-2.2 11.3-6.4 19.3-12.7 24.2-6.3 4.8-15.8 7.2-28.6 7.2h-19.3l11.9-61zm-77.3 122.8h31.8l7.5-38.8h27.2c12 0 21.9-1.3 29.6-3.8 7.8-2.5 14.8-6.7 21.1-12.7 5.3-4.9 9.6-10.3 12.9-16.2s5.6-12.4 7-19.5c3.4-17.3.8-30.7-7.6-40.4-8.4-9.6-21.8-14.5-40.2-14.5h-61.1z"/></svg>