<svg height="32" viewBox="0 0 32 32" width="32" xmlns="http://www.w3.org/2000/svg"><path d="m21 26v2.0025781c0 1.1064965-.8942762 1.9974219-1.9974219 1.9974219h-15.00515619c-1.10649652 0-1.99742191-.8987122-1.99742191-2.0073299v-22.98534016c0-1.10899162.8992496-2.00732994 2.0085302-2.00732994h9.9914698v6.00189865c0 1.11139495.8980806 1.99810135 2.0059191 1.99810135h4.9940809v2h-9.9931517c-1.66063645 0-3.0068483 1.3422643-3.0068483 2.9987856v7.0024288c0 1.6561835 1.33599155 2.9987856 3.0068483 2.9987856zm-6-23v5.99707067c0 .55390257.4509752 1.00292933.990778 1.00292933h5.009222zm-4.0054385 11c-1.10156592 0-1.9945615.9001762-1.9945615 1.992017v7.015966c0 1.1001606.90234375 1.992017 1.9945615 1.992017h17.010877c1.1015659 0 1.9945615-.9001762 1.9945615-1.992017v-7.015966c0-1.1001606-.9023438-1.992017-1.9945615-1.992017zm9.6810828 8.8827511c-.2124753.0759771-.4416207.1172489-.6805258.1172489h-.990237c-1.1109817 0-2.0048815-.8980806-2.0048815-2.0059191v-2.9881618c0-1.1193643.897616-2.0059191 2.0048815-2.0059191h.990237c1.1109817 0 2.0048815.8980806 2.0048815 2.0059191v2.9881618c0 .5052786-.1828982.9631199-.4854177 1.3133946l.7531847.7531847-.7071068.7071068zm-.8827511-.8827511h-.7939366c-.5562963 0-.9989566-.4476291-.9989566-.9998075v-3.000385c0-.5560909.4472481-.9998075.9989566-.9998075h1.0020868c.5562963 0 .9989566.4476291.9989566.9998075v3.000385c0 .2244538-.0728636.4306-.1960501.5966506l-1.3646101-1.3646101-.7071068.7071068zm-6.7880117-6c-1.1072655 0-2.0048815.8877296-2.0048815 2 0 1.1045695.8877296 2 2 2h.9906311c.5574591 0 1.0093689.4438648 1.0093689 1 0 .5522847-.4426603 1-.9989566 1h-1.0020868c-.5517085 0-.9989566-.456284-.9989566-.9955287v-.0113072h-1v.0057569c0 1.1051654.8938998 2.001079 2.0048815 2.001079h.990237c1.1072655 0 2.0048815-.8877296 2.0048815-2 0-1.1045695-.8877296-2-2-2h-.9906311c-.5574591 0-1.0093689-.4438648-1.0093689-1 0-.5522847.4426603-1 .9989566-1h1.0020868c.5517085 0 .9989566.453186.9989566 1h1c0-1.1045695-.8938998-2-2.0048815-2zm14.9951185 6v1h-5v-7h1v6z" fill="#157efb" fill-rule="evenodd"/></svg>