<?xml version="1.0" encoding="UTF-8"?>
<!--Generator: Apple Native CoreSVG 232.5-->
<!DOCTYPE svg
PUBLIC "-//W3C//DTD SVG 1.1//EN"
       "http://www.w3.org/Graphics/SVG/1.1/DTD/svg11.dtd">
<svg version="1.1" xmlns="http://www.w3.org/2000/svg" xmlns:xlink="http://www.w3.org/1999/xlink" width="20.5381" height="20.1812">
 <g>
  <rect height="20.1812" opacity="0" width="20.5381" x="0" y="0"/>
  <path d="M10.0875 19.3803C12.841 19.3803 15.0789 15.3895 15.0789 10.1053C15.0789 4.7953 12.8508 0.802724 10.0875 0.802724C7.32597 0.802724 5.09609 4.7953 5.09609 10.1053C5.09609 15.3895 7.33398 19.3803 10.0875 19.3803ZM10.0875 2.07225C11.9752 2.07225 13.6877 5.82284 13.6877 10.1053C13.6877 14.3201 11.9752 18.1027 10.0875 18.1027C8.20156 18.1027 6.48906 14.3254 6.48906 10.1053C6.48906 5.82284 8.20156 2.07225 10.0875 2.07225ZM9.41054 0.937685L9.41054 19.1965L10.7742 19.1965L10.7742 0.937685ZM10.0875 13.515C7.03574 13.515 4.32051 14.3043 2.97265 15.5553L4.01875 16.4203C5.28144 15.4301 7.4373 14.8787 10.0875 14.8787C12.7394 14.8787 14.8953 15.4301 16.1562 16.4203L17.2023 15.5553C15.8562 14.3043 13.141 13.515 10.0875 13.515ZM19.0396 9.39902L1.1371 9.39902L1.1371 10.7627L19.0396 10.7627ZM10.0875 6.70526C13.141 6.70526 15.8562 5.916 17.2023 4.66502L16.1562 3.79999C14.8953 4.78221 12.7394 5.34159 10.0875 5.34159C7.43906 5.34159 5.28496 4.78221 4.01875 3.79999L2.97265 4.66502C4.32051 5.916 7.03574 6.70526 10.0875 6.70526ZM10.0875 20.175C15.6141 20.175 20.1767 15.606 20.1767 10.0875C20.1767 4.56094 15.606 0 10.0795 0C4.56269 0 0 4.56094 0 10.0875C0 15.606 4.5707 20.175 10.0875 20.175ZM10.0875 18.6113C5.42695 18.6113 1.56542 14.7498 1.56542 10.0875C1.56542 5.42519 5.41894 1.56366 10.0795 1.56366C14.7418 1.56366 18.6113 5.42519 18.6113 10.0875C18.6113 14.7498 14.7498 18.6113 10.0875 18.6113Z" fill="#ffffff" fill-opacity="0.85"/>
 </g>
</svg>
