<svg height="21.6382" width="21.8726" xmlns="http://www.w3.org/2000/svg"><path d="m0 0h21.8726v21.6382h-21.8726z" opacity="0"/><path d="m11.7322 6.47339-1.81154 1.81152c.96194.11231 1.77244.47363 2.29494.9961 1.5771 1.57229 1.5771 3.76949.0195 5.32719l-3.33983 3.33c-1.56738 1.5625-3.75 1.5625-5.31738-.0049-1.57715-1.5771-1.57715-3.7597-.01465-5.3271l1.25488-1.25c-.38086-.8643-.54199-1.9873-.2539-2.94922l-2.69043 2.66602c-2.504886 2.4853-2.495121 6.04.00976 8.5449 2.51465 2.5196 6.05469 2.5098 8.54495.0196l3.4961-3.4961c2.4951-2.4952 2.5-6.0401-.0147-8.54496-.4931-.49805-1.25-.92774-2.1777-1.12305zm-1.95314 8.55471 1.81154-1.8115c-.9619-.1075-1.77248-.4688-2.29494-.9913-1.57226-1.5771-1.57715-3.76949-.01465-5.32711l3.33499-3.33007c1.5674-1.56739 3.75-1.56739 5.3222.00488 1.5723 1.57226 1.5674 3.76465.0098 5.32226l-1.25 1.25004c.376.874.5322 1.9873.2539 2.9541l2.6904-2.6709c2.5-2.48538 2.4952-6.03519-.0097-8.54496-2.5196-2.514644-6.0596-2.504878-8.5547-.00976l-3.48634 3.48633c-2.49512 2.49511-2.5 6.03999.00977 8.54489.49804.4981 1.25.9278 2.17773 1.1231z" fill="#fff" fill-opacity=".85"/></svg>