<svg height="113.64362" width="113.42857" xmlns="http://www.w3.org/2000/svg"><path d="m72.959791 154.60338c-1.76889-.38128-3.893415-1.47098-5.005557-2.56741-1.205244-1.18822-1.99876-2.59839-2.567243-4.56228l-.45842-1.58367v-47.493255c0-44.395945.022398-47.580341.343433-48.828589.849885-3.304537 2.654665-5.668502 5.308167-6.952827 2.936892-1.42149-.602331-1.329474 51.136029-1.329474 51.53529 0 48.33926-.080058 51.10349 1.280089 2.6287 1.293471 4.40021 3.688331 5.17674 6.998297.34346 1.463982.36071 3.80518.36071 48.931654 0 44.341225-.02217 47.480325-.34417 48.732645-1.03147 4.01148-3.65323 6.54933-7.63832 7.39383-1.98185.41998-95.462872.40174-97.414859-.01901zm92.408589-58.586236v-32.918081h-43.62637-43.626374v32.918081 32.918086h43.626374 43.62637zm-72.220683 22.061066c2.513094-2.59032 7.468913-7.65445 11.012923-11.25362l6.44367-6.54396 2.64391 2.68019c2.78065 2.81881 3.76202 3.49125 5.94195 4.07146 1.39788.37206 3.95964.36454 5.4203-.01592 1.95737-.50983 3.04521-1.25058 5.85683-3.98813l2.67708-2.60654 8.72527 8.92315c4.7989 4.90773 9.6919 9.94013 10.87332 11.18309l2.14804 2.25994h-33.15627-33.15628zm-8.863893-22.061066.000801-22.308941 10.982 11.093049 10.981995 11.09305-5.91485 6.060048c-3.253171 3.33303-8.195432 8.38018-10.982802 11.21589l-5.067945 5.15585zm71.457606 18.789086c-1.83281-1.88139-6.72027-6.88042-10.86103-11.10896l-7.52862-7.688248 10.93194-10.952108 10.93193-10.952107.0027 22.061064c.00149 12.133589-.03042 22.061059-.07091 22.061059-.0405 0-1.57319-1.53931-3.40601-3.4207zm-35.76012-14.0069c-.36853-.19637-7.56413-7.353802-15.99021-15.9054l-15.320152-15.548364 16.634692-.050702c9.14908-.027885 24.13751-.027885 33.30764 0l16.67293.050702-15.53099 15.646373c-9.46438 9.534704-15.78091 15.750801-16.17081 15.913711-.91279.38139-2.79187.32594-3.6031-.10632z" transform="translate(-64.928571 -41.284668)"/></svg>